<svg style="background-color: white" id="svg" version="1.1" xmlns="http://www.w3.org/2000/svg" xmlns:xlink="http://www.w3.org/1999/xlink" width="400" height="346.3157894736842" viewBox="0, 0, 400,346.3157894736842"><g id="svgg"><path id="path0" d="M101.579 170.901 C 47.592 264.285,2.750 341.864,1.930 343.298 C 1.110 344.732,0.754 345.713,1.140 345.476 C 1.526 345.240,4.566 343.231,7.895 341.011 C 79.858 293.032,164.736 273.457,248.367 285.552 C 297.808 292.703,347.051 311.580,389.935 339.821 C 394.965 343.133,398.962 345.535,398.817 345.159 C 398.440 344.178,200.551 1.918,200.106 1.478 C 199.903 1.276,155.566 77.517,101.579 170.901 M213.266 137.574 C 254.598 148.101,268.537 199.721,238.153 229.737 C 207.062 260.452,153.595 243.228,146.036 200.063 C 139.221 161.148,175.054 127.842,213.266 137.574 " stroke="none" fill="#000000" fill-rule="evenodd"></path></g></svg>